<?xml version="1.0" encoding="utf-8"?>
<!-- Generator: Adobe Illustrator 25.4.1, SVG Export Plug-In . SVG Version: 6.00 Build 0)  -->
<svg version="1.1" id="레이어_1" xmlns="http://www.w3.org/2000/svg" xmlns:xlink="http://www.w3.org/1999/xlink" x="0px"
	 y="0px" viewBox="0 0 18 18" style="enable-background:new 0 0 18 18;" xml:space="preserve">
<style type="text/css">
	.st0{fill:#538EE5;stroke:#235EA5;stroke-miterlimit:10;}
	.st1{fill:#FFFFFF;}
</style>
<path class="st0" d="M7.5,14.4L7.5,14.4c-2.9-0.8-4.8-3.3-4.8-6.2c0-3.5,2.9-6.4,6.4-6.4s6.4,2.9,6.4,6.4c0,2.9-1.9,5.4-4.7,6.2
	L9.1,16L7.5,14.4z"/>
<path class="st1" d="M7.5,7.7c0,0.1-0.1,0.3-0.1,0.4c0,0.5,0.2,0.9,0.5,1.2L7.3,10C6.8,9.5,6.6,8.9,6.6,8.2c0-0.4,0.1-0.8,0.2-1.1
	L6.2,6.4C5.9,7,5.7,7.5,5.7,8.2c0,0.9,0.4,1.8,1,2.4l-0.6,0.6c-0.8-0.8-1.3-1.8-1.3-3c0-0.9,0.3-1.7,0.7-2.4l-1-1l0.6-0.6l7.9,7.9
	l-0.6,0.6L7.5,7.7z M11.5,9.3c0.2-0.3,0.2-0.7,0.2-1.1c0-0.7-0.3-1.4-0.8-1.8L10.3,7c0.3,0.3,0.5,0.7,0.5,1.2c0,0.2,0,0.3-0.1,0.4
	L11.5,9.3z M12.6,8.2c0,0.6-0.2,1.2-0.5,1.7l0.6,0.6c0.4-0.7,0.7-1.5,0.7-2.4c0-1.2-0.5-2.3-1.3-3l-0.6,0.6
	C12.2,6.4,12.6,7.2,12.6,8.2z"/>
</svg>
