<?xml version="1.0" encoding="utf-8"?>
<!-- Generator: Adobe Illustrator 25.4.1, SVG Export Plug-In . SVG Version: 6.00 Build 0)  -->
<svg version="1.1" id="레이어_1" xmlns="http://www.w3.org/2000/svg" xmlns:xlink="http://www.w3.org/1999/xlink" x="0px"
	 y="0px" viewBox="0 0 18 18" style="enable-background:new 0 0 18 18;" xml:space="preserve">
<style type="text/css">
	.st0{fill:#5C6578;stroke:#5C6578;stroke-miterlimit:10;}
	.st1{fill:#EAEAEA;}
</style>
<path class="st0" d="M7.5,14.4L7.5,14.4c-2.9-0.8-4.8-3.3-4.8-6.2c0-3.5,2.9-6.4,6.4-6.4s6.4,2.9,6.4,6.4c0,2.9-1.9,5.4-4.7,6.2
	L9.1,16L7.5,14.4z"/>
<g>
	<path class="st1" d="M9.2,3.1L6.8,7h4.8L9.2,3.1z M11.6,7.9c-1.1,0-2,0.9-2,2s0.9,2,2,2s2-0.9,2-2S12.7,7.9,11.6,7.9z M5.3,11.7
		h3.5V8.1H5.3V11.7z"/>
</g>
</svg>
