
<svg xmlns="http://www.w3.org/2000/svg" width="18" height="18" viewBox="0 0 18 18">
<style type="text/css">
	.st0{fill:#356AD1;stroke:#0746A0;stroke-miterlimit:10;}
	.st1{fill:#FFFFFF;}
	.st2{fill:#0746A0;}
</style>
<path class="st0" d="M7.5,14.4L7.5,14.4c-2.9-0.8-4.8-3.3-4.8-6.2c0-3.5,2.9-6.4,6.4-6.4s6.4,2.9,6.4,6.4c0,2.9-1.9,5.4-4.7,6.2
	h-0.1L9,16L7.5,14.4z"/>
<g>
	<g>
		<path class="st1" d="M6.4,11.3C5,11.3,4,10.3,4,8.9c0-1.3,1.1-2.3,2.3-2.3l0.1,0c0.1,0,0.2,0,0.3,0V5.4h2V4.3h1.4
			c0.5,0,0.9,0.3,1.1,0.8l0.6,1.6h0.1c1.3,0,2.3,1,2.3,2.3c0,1.3-1.1,2.3-2.3,2.3l-0.1,0c-1,0-1.8-0.7-2.1-1.6H8.6
			C8.3,10.7,7.4,11.3,6.4,11.3z M11.3,9.5c0.1,0.1,0.3,0.2,0.5,0.2c0.4,0,0.7-0.3,0.8-0.7L11.3,9.5z M6.1,9.7c0.1,0,0.2,0,0.2,0
			c0.1,0,0.2,0,0.2,0H6.1z M6,8.2C5.7,8.4,5.6,8.6,5.6,8.9S5.7,9.5,6,9.7V8.2z M11.1,9.1c0,0.1,0.1,0.2,0.1,0.3L11.1,9.1z M12.7,9
			C12.7,9,12.7,9,12.7,9c0-0.2-0.1-0.4-0.2-0.6L12.7,9z M6.6,8.2c-0.1,0-0.2,0-0.2,0c-0.1,0-0.2,0-0.2,0H6.6z M9.6,8.2
			C9.6,8.2,9.6,8.2,9.6,8.2L9.6,8.2L9.6,8.2z M10.2,6.6L9.9,5.8H9.5v0.8H10.2z"/>
		<path class="st2" d="M10.1,4.6c0.3,0,0.6,0.2,0.7,0.5L11.5,7v0h0.3c1.1,0,2,0.9,2,2c0,1.1-0.9,2-2,2c0,0-0.1,0-0.1,0
			c-0.9,0-1.7-0.7-1.8-1.6H8.3c-0.2,0.9-1,1.6-1.9,1.6c-1.1,0-2-0.9-2-2c0-1.1,0.9-2,2-2c0,0,0.1,0,0.1,0c0.9,0,1.7,0.7,1.8,1.6h0.3
			l-0.7-2H7.1V5.8h2v0.8H8.7L8.8,7h1.9l-0.6-1.6h-1V4.6H10.1 M11.5,9.1l-0.4-1c-0.3,0.2-0.4,0.5-0.4,0.9c0,0.7,0.5,1.2,1.2,1.2
			c0.7,0,1.2-0.5,1.2-1.2s-0.5-1.2-1.2-1.2c0,0,0,0,0,0l0.4,1L11.5,9.1 M9.4,8.6h0.5C10,8.3,10.1,8,10.3,7.8H9.1L9.4,8.6 M6.4,10.1
			c0.5,0,0.9-0.3,1.1-0.8H6.4V8.6h1.1C7.3,8.1,6.9,7.8,6.4,7.8c-0.7,0-1.2,0.5-1.2,1.2S5.7,10.1,6.4,10.1 M10.1,3.9h-1H8.4v0.8v0.4
			H7.1H6.4v0.8v0.4c0,0,0,0,0,0C5.6,6.2,5,6.5,4.5,7C3.9,7.6,3.6,8.2,3.6,8.9c0,1.5,1.2,2.7,2.7,2.7c1.1,0,2-0.6,2.5-1.6h0.6
			c0.4,0.9,1.3,1.5,2.3,1.6c0,0,0.1,0,0.1,0c1.5,0,2.7-1.2,2.7-2.7c0-1.5-1.1-2.6-2.5-2.7l-0.5-1.3C11.3,4.3,10.8,3.9,10.1,3.9
			L10.1,3.9z"/>
	</g>
</g>
</svg>
