<svg xmlns="http://www.w3.org/2000/svg" width="18" height="18" viewBox="0 0 18 18">
<path class="st0" d="M7.5,14.4L7.5,14.4c-2.9-0.8-4.8-3.3-4.8-6.2c0-3.5,2.9-6.4,6.4-6.4s6.4,2.9,6.4,6.4c0,2.9-1.9,5.4-4.7,6.2
	L9.1,16L7.5,14.4z" fill="#32A1FF" stroke="#1B75B2" stroke-miterlimit="10" />
<path class="st1" d="M12.2,6.2L9.4,3.4H8.9v3.7L6.7,4.9L6,5.6l2.7,2.7L6,11l0.7,0.7l2.2-2.2v3.7h0.5l2.8-2.8l-2.1-2.1
	C10.1,8.3,12.2,6.2,12.2,6.2z M9.9,5.3l0.9,0.9L9.9,7.1V5.3z M10.8,10.4l-0.9,0.9V9.5C9.9,9.5,10.8,10.4,10.8,10.4z" fill="#FFFFFF" />
</svg>
