
<svg xmlns="http://www.w3.org/2000/svg" width="18" height="18" viewBox="0 0 18 18">
<style type="text/css">
	.st0{fill:#356AD1;stroke:#0746A0;stroke-miterlimit:10;}
	.st1{fill:#FFFFFF;}
	.st2{fill:#0746A0;}
</style>
<path class="st0" d="M7.5,14.4L7.5,14.4c-2.9-0.8-4.8-3.3-4.8-6.2c0-3.5,2.9-6.4,6.4-6.4s6.4,2.9,6.4,6.4c0,2.9-1.9,5.4-4.7,6.2
	h-0.1L9,16L7.5,14.4z"/>
<g>
	<polygon class="st1" points="11.5,5.2 6.7,5.2 6.2,6.6 12,6.6 	"/>
	<rect x="5.9" y="7.5" class="st1" width="6.4" height="2.3"/>
</g>
<g>
	<path class="st2" d="M12.3,4.8c-0.1-0.3-0.3-0.5-0.7-0.5H6.6C6.3,4.3,6,4.5,5.9,4.8L5,7.5v3.7c0,0.3,0.2,0.5,0.5,0.5h0.5
		c0.3,0,0.5-0.2,0.5-0.5v-0.5h5.5v0.5c0,0.3,0.2,0.5,0.5,0.5h0.5c0.3,0,0.5-0.2,0.5-0.5V7.5L12.3,4.8z M6.7,5.2h4.7L12,6.6H6.2
		L6.7,5.2z M12.3,9.8H5.9V7.5h6.4V9.8z"/>
	<circle class="st2" cx="7" cy="8.7" r="0.7"/>
	<circle class="st2" cx="11.2" cy="8.7" r="0.7"/>
</g>
</svg>
