<svg xmlns="http://www.w3.org/2000/svg" width="18" height="18" viewBox="0 0 18 18">
<g>
	<path class="st0" d="M7.5,14.4L7.5,14.4c-2.9-0.8-4.8-3.3-4.8-6.2c0-3.5,2.9-6.4,6.4-6.4s6.4,2.9,6.4,6.4c0,2.9-1.9,5.4-4.7,6.2
		h-0.1L9,16L7.5,14.4z" fill="#B1542C" />
	<path class="st1" d="M9,2.2c3.3,0,6,2.7,6,6c0,2.7-1.8,5.1-4.5,5.8l-0.2,0.1l-0.1,0.1L9,15.4l-1.2-1.2l-0.1-0.1L7.5,14
		C4.8,13.3,3,11,3,8.2C3,4.9,5.7,2.2,9,2.2 M9,1.5c-3.7,0-6.8,3-6.8,6.8c0,3.1,2.1,5.8,5,6.5L9,16.5l1.7-1.7c2.9-0.8,5-3.4,5-6.5
		C15.8,4.5,12.7,1.5,9,1.5L9,1.5z" fill="#7F290E" />
</g>
<g>
	<path class="st2" d="M6.2,12.2c-0.6,0-1.1-0.5-1.1-1.1V6c0-0.3,0.1-0.5,0.2-0.7L6,4.7c0.2-0.2,0.4-0.3,0.7-0.3h4.9
		c0.3,0,0.5,0.1,0.7,0.3l0.6,0.7C12.9,5.5,13,5.8,13,6v5.1c0,0.6-0.5,1.1-1.1,1.1C11.9,12.2,6.2,12.2,6.2,12.2z" fill="white" />
	<path class="st1" d="M11.5,4.6c0.2,0,0.4,0.1,0.5,0.2l0.6,0.7c0.1,0.1,0.2,0.3,0.2,0.5v5.1c0,0.4-0.4,0.8-0.8,0.8H6.2
		c-0.5,0-0.8-0.4-0.8-0.8V6c0-0.2,0.1-0.4,0.2-0.5l0.6-0.7c0.1-0.1,0.3-0.2,0.5-0.2L11.5,4.6 M6.3,5.4h5.6L11.5,5H6.6L6.3,5.4
		 M11.5,4.1H6.6C6.3,4.1,6,4.3,5.8,4.5L5.2,5.2C5,5.4,4.9,5.7,4.9,6v5.1c0,0.7,0.6,1.3,1.3,1.3h5.7c0.7,0,1.3-0.6,1.3-1.3V6
		c0-0.3-0.1-0.6-0.3-0.8l-0.6-0.7C12.1,4.2,11.8,4.1,11.5,4.1L11.5,4.1z" fill="#7F290E" />
</g>
</svg>
