<svg width="24" height="12" viewBox="0 0 24 12" fill="none" xmlns="http://www.w3.org/2000/svg">
<path d="M23.0156 2.01562C23.0156 3.09375 22.0781 3.98438 21 3.98438C20.8125 3.98438 20.6719 3.98438 20.4844 3.9375L16.9219 7.5C16.9688 7.64062 17.0156 7.82812 17.0156 8.01562C17.0156 9.09375 16.0781 9.98438 15 9.98438C13.9219 9.98438 12.9844 9.09375 12.9844 8.01562C12.9844 7.82812 13.0312 7.64062 13.0781 7.5L10.5 4.92188C10.3594 4.96875 10.1719 5.01562 9.98438 5.01562C9.79688 5.01562 9.65625 4.96875 9.46875 4.92188L4.92188 9.46875C4.96875 9.65625 5.01562 9.79688 5.01562 9.98438C5.01562 11.1094 4.07812 12 3 12C1.92188 12 0.984375 11.1094 0.984375 9.98438C0.984375 8.90625 1.92188 8.01562 3 8.01562C3.1875 8.01562 3.32812 8.01562 3.51562 8.0625L8.0625 3.51562C8.01562 3.375 8.01562 3.1875 8.01562 3C8.01562 1.92188 8.90625 0.984375 9.98438 0.984375C11.1094 0.984375 12 1.92188 12 3C12 3.1875 12 3.375 11.9531 3.51562L14.4844 6.04688C14.625 6 14.8125 6 15 6C15.1875 6 15.375 6 15.5156 6.04688L19.0781 2.53125C19.0312 2.34375 18.9844 2.20312 18.9844 2.01562C18.9844 0.890625 19.9219 0 21 0C22.0781 0 23.0156 0.890625 23.0156 2.01562Z" fill="white"/>
</svg>
