<svg width="21" height="24" viewBox="0 0 21 24" fill="none" xmlns="http://www.w3.org/2000/svg">
<path d="M17.0156 0.984375V3.98438H20.0156V6H17.0156V9H15V6H12V3.98438H15V0.984375H17.0156ZM9 12.9844C7.92188 12.9844 6.98438 12.0938 6.98438 11.0156C6.98438 9.89062 7.92188 9 9 9C10.0781 9 11.0156 9.89062 11.0156 11.0156C11.0156 12.0938 10.0781 12.9844 9 12.9844ZM9.98438 3.04688V5.0625C9.65625 5.01562 9.32812 5.01562 9 5.01562C5.67188 5.01562 3 7.54688 3 11.2031C3 13.5469 4.96875 16.6406 9 20.3438C13.0312 16.6406 15 13.5469 15 11.2031V11.0156H17.0156V11.2031C17.0156 14.5312 14.3438 18.4688 9 23.0156C3.65625 18.4688 0.984375 14.5312 0.984375 11.2031C0.984375 6.23438 4.78125 3 9 3C9.32812 3 9.65625 3 9.98438 3.04688Z" fill="white"/>
</svg>
