<svg width="20" height="20" viewBox="0 0 20 20" fill="none" xmlns="http://www.w3.org/2000/svg">
<path d="M7.65625 5.64062C7.89062 5.125 7.98438 4.60938 7.98438 4C7.98438 1.79688 6.20312 0.015625 4 0.015625C1.79688 0.015625 0.015625 1.79688 0.015625 4C0.015625 6.20312 1.79688 7.98438 4 7.98438C4.60938 7.98438 5.125 7.89062 5.64062 7.65625L7.98438 10L5.64062 12.3438C5.125 12.1094 4.60938 12.0156 4 12.0156C1.79688 12.0156 0.015625 13.7969 0.015625 16C0.015625 18.2031 1.79688 19.9844 4 19.9844C6.20312 19.9844 7.98438 18.2031 7.98438 16C7.98438 15.3906 7.89062 14.875 7.65625 14.3594L10 12.0156L16.9844 19H19.9844V18.0156L7.65625 5.64062ZM4 6.01562C2.92188 6.01562 1.98438 5.125 1.98438 4C1.98438 2.875 2.92188 1.98438 4 1.98438C5.07812 1.98438 6.01562 2.875 6.01562 4C6.01562 5.125 5.07812 6.01562 4 6.01562ZM4 18.0156C2.92188 18.0156 1.98438 17.125 1.98438 16C1.98438 14.875 2.92188 13.9844 4 13.9844C5.07812 13.9844 6.01562 14.875 6.01562 16C6.01562 17.125 5.07812 18.0156 4 18.0156ZM10 10.5156C9.71875 10.5156 9.48438 10.2812 9.48438 10C9.48438 9.71875 9.71875 9.48438 10 9.48438C10.2812 9.48438 10.5156 9.71875 10.5156 10C10.5156 10.2812 10.2812 10.5156 10 10.5156ZM16.9844 1L10.9844 7L13 9.01562L19.9844 1.98438V1H16.9844Z" fill="white"/>
</svg>
