<svg xmlns="http://www.w3.org/2000/svg" width="18" height="18" viewBox="0 0 18 18">
<path class="st0" d="M7.5,14.4L7.5,14.4c-2.9-0.8-4.8-3.3-4.8-6.2c0-3.5,2.9-6.4,6.4-6.4s6.4,2.9,6.4,6.4c0,2.9-1.9,5.4-4.7,6.2
	L9.1,16L7.5,14.4z" fill="#636363" stroke="#333333" stroke-miterlimit="10" />
<g>
	<path class="st1" d="M7.7,7.5C8,7.2,8.6,7,9.1,7c0.5,0,1.1,0.2,1.4,0.6l0.4,0.4l0.7-0.7l-0.4-0.4c-0.6-0.6-1.3-0.9-2.2-0.9
		c-0.8,0-1.6,0.3-2.2,0.9L6.6,7.2l0.7,0.7L7.7,7.5z" fill="#FFFFFF" />
	<path class="st1" d="M12.3,6.5L13,5.8l-0.4-0.4h0c-0.6-0.6-1.4-1.1-2.3-1.3c-0.9-0.2-1.8-0.2-2.6,0C6.9,4.3,6.1,4.8,5.5,5.4
		L5.2,5.8l0.7,0.7l0.4-0.4C7,5.4,8,4.9,9.1,4.9s2.1,0.4,2.9,1.2L12.3,6.5z" fill="#FFFFFF" />
	<path class="st1" d="M11.9,11.8v-0.5c0-1-0.5-1.9-1.4-2.4c-0.9-0.5-1.9-0.5-2.8,0c-0.9,0.5-1.4,1.4-1.4,2.4v0.5h1v-0.5
		c0-0.6,0.3-1.2,0.9-1.5c0.5-0.3,1.2-0.3,1.8,0c0.5,0.3,0.9,0.9,0.9,1.5v0.5L11.9,11.8z" fill="#FFFFFF" />
	<path class="st1" d="M9.6,11.3c0,0.3-0.2,0.5-0.5,0.5s-0.5-0.2-0.5-0.5s0.2-0.5,0.5-0.5S9.6,11,9.6,11.3" fill="#FFFFFF" />
</g>
</svg>
