<svg xmlns="http://www.w3.org/2000/svg" width="18" height="18" viewBox="0 0 18 18">
<style type="text/css">
	.st0{fill:#E58E0E;stroke:#CC7502;stroke-miterlimit:10;}
	.st1{fill:#FFFFFF;}
</style>
<path class="st0" d="M7.5,14.4L7.5,14.4c-2.9-0.8-4.8-3.3-4.8-6.2c0-3.5,2.9-6.4,6.4-6.4s6.4,2.9,6.4,6.4c0,2.9-1.9,5.4-4.7,6.2
	h-0.1L9,16L7.5,14.4z"/>
<g>
	<path class="st1" d="M9.3,9.6c-0.5,0-0.9,0.4-0.9,1s0.4,1,0.9,1s0.9-0.4,0.9-1C10.2,10,9.8,9.6,9.3,9.6z"/>
	<path class="st1" d="M13.9,10.3h-2.5V4.5c0-0.1-0.1-0.2-0.2-0.2c-0.1,0-0.2,0.1-0.2,0.2v5l-0.4-0.8H4.1v1.6c0,0.3,0.2,0.5,0.5,0.5
		h0.1c0-0.1,0-0.1,0-0.2c0-0.8,0.6-1.5,1.4-1.5s1.4,0.6,1.4,1.5c0,0.1,0,0.2,0,0.2h0.6c0-0.1,0-0.1,0-0.2c0-0.8,0.6-1.5,1.4-1.5
		s1.4,0.6,1.4,1.5c0,0.1,0,0.1,0,0.2h3.3c0.1,0,0.2-0.1,0.2-0.2C14.1,10.4,14.1,10.3,13.9,10.3L13.9,10.3z"/>
	<path class="st1" d="M13.8,6.4h-1.7c-0.1,0-0.2,0.1-0.2,0.2v2.8c0,0.1,0.1,0.2,0.2,0.2h1.7c0.1,0,0.2-0.1,0.2-0.2V6.7
		C14.1,6.6,14,6.4,13.8,6.4L13.8,6.4z"/>
	<path class="st1" d="M8.8,4.6C8.8,4.4,8.5,4.2,8.2,4.2H6.4c-0.4,0-0.7,0.3-0.7,0.7V7H4.7C4.4,7,4.1,7.3,4.1,7.7v0.4h6.4L8.8,4.6z
		 M8.7,7.5H7c-0.1,0-0.2-0.1-0.2-0.2V5.6c0-0.1,0.1-0.2,0.2-0.2h0.9c0.1,0,0.1,0,0.2,0.1l0.9,1.7c0,0.1,0,0.1,0,0.2
		C8.9,7.5,8.8,7.5,8.7,7.5L8.7,7.5z"/>
	<path class="st1" d="M5.9,9.6C5.5,9.6,5,10,5,10.6s0.4,1,0.9,1s0.9-0.4,0.9-1C6.9,10,6.4,9.6,5.9,9.6L5.9,9.6z"/>
</g>
</svg>
