<svg xmlns="http://www.w3.org/2000/svg" width="18" height="18" viewBox="0 0 18 18">
<g>
	<path d="M8.3,10.7c-0.8,0-1.4,0.7-1.4,1.6c0,0.9,0.6,1.6,1.4,1.6s1.4-0.7,1.4-1.6C9.7,11.3,9.1,10.7,8.3,10.7z"/>
	<path d="M15.6,11.8h-3.9V2.6c0-0.2-0.1-0.4-0.4-0.4c-0.2,0-0.4,0.2-0.4,0.4v7.9l-0.6-1.3H0v2.6c0,0.5,0.3,0.8,0.7,0.8h0.1
		c0-0.2,0-0.2,0-0.4c0-1.3,1-2.3,2.1-2.3s2.1,1,2.1,2.3c0,0.2,0,0.3,0,0.4h1c0-0.2,0-0.2,0-0.4c0-1.3,1-2.3,2.1-2.3
		c1.1,0,2.1,1,2.1,2.3c0,0.2,0,0.2,0,0.4h5.2c0.2,0,0.4-0.2,0.4-0.4C16,12,15.9,11.8,15.6,11.8L15.6,11.8z"/>
	<path d="M15.5,5.7h-2.7c-0.2,0-0.4,0.2-0.4,0.4v4.5c0,0.2,0.1,0.4,0.4,0.4h2.7c0.2,0,0.4-0.2,0.4-0.4V6.1
		C15.9,5.9,15.7,5.7,15.5,5.7L15.5,5.7z"/>
	<path d="M7.6,2.8C7.4,2.4,7,2.2,6.6,2.2H3.6C3,2.1,2.6,2.7,2.6,3.3v3.3H1.1C0.5,6.6,0,7.1,0,7.7v0.7h10.1L7.6,2.8z M7.4,7.4H4.7
		C4.4,7.4,4.3,7.2,4.3,7V4.3c0-0.2,0.1-0.4,0.4-0.4H6c0.1,0,0.2,0.1,0.3,0.2l1.4,2.7c0.1,0.2,0.1,0.2,0,0.4C7.7,7.3,7.5,7.4,7.4,7.4
		L7.4,7.4z"/>
	<path d="M3,10.7c-0.8,0-1.4,0.7-1.4,1.6c0,0.9,0.6,1.6,1.4,1.6s1.4-0.7,1.4-1.6C4.4,11.3,3.8,10.7,3,10.7L3,10.7z"/>
</g>
</svg>
