<?xml version="1.0" encoding="utf-8"?>
<!-- Generator: Adobe Illustrator 25.2.0, SVG Export Plug-In . SVG Version: 6.00 Build 0)  -->
<svg version="1.1" id="레이어_1" xmlns="http://www.w3.org/2000/svg" xmlns:xlink="http://www.w3.org/1999/xlink" x="0px"
	 y="0px" viewBox="0 0 18 18" style="enable-background:new 0 0 18 18;" xml:space="preserve">
<style type="text/css">
	.st0{fill:#1DB208;stroke:#006802;stroke-miterlimit:10;}
	.st1{fill:#FFFFFF;}
	.st2{fill:#006802;}
</style>
<path class="st0" d="M9,16.9C5.4,16,2.6,12.3,2.6,8.3V4L9,1.2L15.4,4v4.3C15.4,12.2,12.6,15.9,9,16.9z"/>
<g>
	<polygon class="st1" points="9,10.8 6.4,12.3 7,9.3 4.7,7.4 7.7,7.1 9,4.2 10.2,7 13.2,7.3 10.9,9.3 11.5,12.4 	"/>
	<path class="st2" d="M9,5.2l0.9,2.2l2.4,0.2l-1.8,1.6l0.5,2.4l-2-1.2l-2.1,1.2l0.5-2.4L5.6,7.7L8,7.5L9,5.2 M9,3.3L8.3,4.9L7.5,6.8
		L5.5,7L3.7,7.1l1.4,1.2l1.5,1.2l-0.4,2l-0.3,1.6l1.4-0.8l1.7-1l1.6,1l1.5,0.9l-0.3-1.7l-0.4-2l1.5-1.3L14.1,7l-1.7-0.1l-1.9-0.2
		L9.7,4.9L9,3.3L9,3.3z"/>
</g>
</svg>
