<svg xmlns="http://www.w3.org/2000/svg" width="18" height="18" viewBox="0 0 18 18">
<path class="st0" d="M7.5,14.4L7.5,14.4c-2.9-0.8-4.8-3.3-4.8-6.2c0-3.5,2.9-6.4,6.4-6.4s6.4,2.9,6.4,6.4c0,2.9-1.9,5.4-4.7,6.2
	h-0.1L9,16L7.5,14.4z" fill="#E83B3B" stroke="#B71313" stroke-miterlimit="10" />
<g>
	<path class="st1" d="M8.1,12.3c-0.1,0-0.2,0-0.3-0.1L4.7,9.1C4.6,9,4.6,8.7,4.7,8.6l1-1C5.8,7.4,5.9,7.4,6,7.4l0,0
		c0.1,0,0.2,0,0.3,0.1l1.8,1.8l4-4.1c0.1-0.1,0.2-0.1,0.3-0.1l0,0c0.1,0,0.2,0,0.3,0.1l1,1c0.1,0.1,0.1,0.4,0,0.5l-5.4,5.4
		C8.3,12.3,8.2,12.3,8.1,12.3L8.1,12.3z" fill="#FFFFFF" />
	<path class="st2" d="M12.4,5.5l1,1L8,11.9L5,8.8l1-1l2.1,2.1L12.4,5.5 M12.4,4.7L12.4,4.7c-0.2,0-0.4,0.1-0.5,0.2L8.1,8.8L6.5,7.2
		C6.4,7.1,6.2,7,6,7l0,0C5.8,7,5.6,7.1,5.5,7.2l-1,1C4.1,8.6,4.1,9,4.4,9.3l3.1,3.1c0.1,0.1,0.3,0.2,0.5,0.2l0,0
		c0.2,0,0.4-0.1,0.5-0.2L14,7.1c0.3-0.3,0.3-0.8,0-1.1l-1-1C12.8,4.8,12.6,4.7,12.4,4.7L12.4,4.7z" fill="#B71313" />
</g>
</svg>
