<svg xmlns="http://www.w3.org/2000/svg" width="18" height="18" viewBox="0 0 18 18">
<style type="text/css">
	.st0{fill:#EF59AC;stroke:#D81E8D;stroke-miterlimit:10;}
	.st1{fill:#FFFFFF;stroke:#D81E8D;stroke-miterlimit:10;}
	.st2{fill:#D81E8D;}
</style>
<path class="st0" d="M7.5,14.4L7.5,14.4c-2.9-0.8-4.8-3.3-4.8-6.2c0-3.5,2.9-6.4,6.4-6.4s6.4,2.9,6.4,6.4c0,2.9-1.9,5.4-4.7,6.2
	h-0.1L9,16L7.5,14.4z"/>
<path class="st1" d="M11.1,3.6H6.9C6.5,3.6,6.1,4,6.1,4.4v7.5c0,0.5,0.4,0.8,0.8,0.8h4.2c0.5,0,0.8-0.4,0.8-0.8V4.4
	C11.9,4,11.5,3.6,11.1,3.6z"/>
<g>
	<rect x="7.3" y="5.7" class="st2" width="3.4" height="4.9"/>
</g>
</svg>
