<svg xmlns="http://www.w3.org/2000/svg" width="18" height="18" viewBox="0 0 18 18">
<path class="st0" d="M7.5,14.4L7.5,14.4c-2.9-0.8-4.8-3.3-4.8-6.2c0-3.5,2.9-6.4,6.4-6.4s6.4,2.9,6.4,6.4c0,2.9-1.9,5.4-4.7,6.2
	h-0.1L9,16L7.5,14.4z" fill="#DD3131" stroke="#910C0C" stroke-miterlimit="10" />
<g>
	<path class="st1" d="M9.1,8.1c-1.2,0-4,0.6-4,2.2v0.1l0.1,0.1c0.9,1.3,2.4,2.1,3.9,2.1s3-0.8,3.9-2.1l0.1-0.1v-0.1
		C13.1,8.7,10.3,8.1,9.1,8.1z" fill="#FFFFFF" stroke="#910C0C" stroke-width="0.75" stroke-miterlimit="10" />
	<circle class="st1" cx="9.1" cy="5.8" r="2.1"/>
</g>
</svg>
