<?xml version="1.0" encoding="utf-8"?>
<!-- Generator: Adobe Illustrator 25.1.0, SVG Export Plug-In . SVG Version: 6.00 Build 0)  -->
<svg version="1.1" id="레이어_1" xmlns="http://www.w3.org/2000/svg" xmlns:xlink="http://www.w3.org/1999/xlink" x="0px"
	 y="0px" viewBox="0 0 18 18" style="enable-background:new 0 0 18 18;" xml:space="preserve">
<style type="text/css">
	.st0{fill:none;}
	.st1{fill:#FFFFFF;}
	.st2{fill:#DD3131;}
	.st3{fill:#910C0C;}
	.st4{fill:#FFFFFF;stroke:#910C0C;stroke-width:0.5;stroke-miterlimit:10;}
	.st5{fill:#FFFFFF;stroke:#910C0C;stroke-width:0.25;stroke-miterlimit:10;}
</style>
<g id="레이어_9">
	<path class="st0" d="M0,0h18v18H0V0z"/>
	<g>
		<circle class="st1" cx="9" cy="5.5" r="3"/>
	</g>
	<g>
		<path class="st2" d="M7.5,14.4L7.5,14.4c-2.9-0.8-4.8-3.3-4.8-6.2c0-3.5,2.9-6.4,6.4-6.4s6.4,2.9,6.4,6.4c0,2.9-1.9,5.4-4.7,6.2
			h-0.1L9,16L7.5,14.4z"/>
		<path class="st3" d="M9,2.2c3.3,0,6,2.7,6,6c0,2.7-1.8,5.1-4.5,5.8l-0.2,0.1l-0.1,0.1L9,15.4l-1.2-1.2l-0.1-0.1L7.5,14
			C4.8,13.3,3,11,3,8.2C3,4.9,5.7,2.2,9,2.2 M9,1.5c-3.7,0-6.8,3-6.8,6.8c0,3.1,2.1,5.8,5,6.5L9,16.5l1.7-1.7c2.9-0.8,5-3.4,5-6.5
			C15.8,4.5,12.7,1.5,9,1.5L9,1.5z"/>
	</g>
	<path class="st4" d="M12.1,9l0.5-1.2c0.1-0.2-0.1-0.4-0.3-0.4h-1.1c0.2-0.4,0.3-0.8,0.3-1.2l0,0c0.8-0.2,1.2-0.4,1.2-0.6
		s-0.3-0.4-0.9-0.5c-0.3-0.1-0.5-0.3-0.6-0.5c-0.2-0.6-0.4-1-0.6-1.3C10.4,3.1,10.1,3,9.8,3.2L9.3,3.4C9.2,3.5,9.1,3.5,9,3.5
		s-0.2,0-0.3-0.1L8.2,3.2C7.9,3,7.6,3.1,7.4,3.3C7.2,3.6,7,4,6.8,4.5C6.7,4.8,6.5,5,6.2,5C5.6,5.2,5.3,5.4,5.3,5.6s0.5,0.5,1.2,0.6
		l0,0c0,0.5,0.1,0.9,0.3,1.2H5.7c-0.2,0-0.4,0.2-0.3,0.4L5.9,9c-0.8,0.1-1.5,0.8-1.5,1.5c0,0.6,1.3,2.6,4.6,2.7l0,0l0,0
		c3.3-0.1,4.6-2.1,4.6-2.7S12.9,9.2,12.1,9z"/>
	<path class="st5" d="M10.9,6.5l-0.1,0.1c-0.1,0.2-0.1,0.5-0.3,0.6c-0.2,0.2-0.9,0.4-1.2-0.5c0-0.1-0.1-0.1-0.2-0.1
		c-0.1,0-0.2,0-0.2,0.1c-0.3,0.9-1,0.7-1.2,0.5C7.4,7.1,7.3,6.8,7.3,6.6c0-0.1-0.1-0.1-0.1-0.1V6.3C7.7,6.4,8.3,6.4,9,6.4l0,0l0,0
		c0.7,0,1.3,0,1.9-0.1V6.5z"/>
	<g>
		<path class="st3" d="M13.2,13.4c-0.4,0.2-0.8,0.3-1.2,0.3c-1.6,0-2.8-1.3-2.8-2.8S10.5,8,12,8s2.8,1.3,2.8,2.8
			c0,0.4-0.1,0.8-0.3,1.2l1.6,1.6L14.7,15L13.2,13.4z M12,10c-0.5,0-0.8,0.4-0.8,0.8s0.4,0.8,0.8,0.8s0.8-0.4,0.8-0.8S12.5,10,12,10
			z"/>
		<path class="st1" d="M12,8.4c1.4,0,2.4,1.1,2.4,2.4c0,0.5-0.1,0.9-0.3,1.2l1.6,1.6l-0.9,0.9L13.3,13c-0.4,0.2-0.8,0.3-1.2,0.3
			c-1.4,0-2.4-1.1-2.4-2.4C9.6,9.5,10.7,8.4,12,8.4 M12,12.1c0.7,0,1.2-0.6,1.2-1.2c0-0.7-0.6-1.2-1.2-1.2s-1.2,0.6-1.2,1.2
			S11.3,12.1,12,12.1 M12,7.7c-1.8,0-3.2,1.4-3.2,3.2s1.4,3.2,3.2,3.2c0.4,0,0.7-0.1,1.1-0.2l1.2,1.2l0.5,0.5l0.5-0.5l0.9-0.9
			l0.5-0.5l-0.5-0.5L15,11.9c0.1-0.3,0.2-0.7,0.2-1.1C15.2,9.1,13.8,7.7,12,7.7L12,7.7z M12,11.3c-0.3,0-0.5-0.2-0.5-0.5
			s0.2-0.5,0.5-0.5s0.5,0.2,0.5,0.5S12.3,11.3,12,11.3L12,11.3z"/>
	</g>
</g>
</svg>
