<svg xmlns="http://www.w3.org/2000/svg" width="18" height="18" viewBox="0 0 18 18">
<path class="st0" d="M7.5,14.4L7.5,14.4c-2.9-0.8-4.8-3.3-4.8-6.2c0-3.5,2.9-6.4,6.4-6.4s6.4,2.9,6.4,6.4c0,2.9-1.9,5.4-4.7,6.2
	h-0.1L9,16L7.5,14.4z" fill="#356AD1" stroke="#0746A0" stroke-miterlimit="10" />
<path class="st1" d="M11.1,3.6l-4.2,0C6.5,3.6,6.1,4,6.1,4.4v7.5c0,0.5,0.4,0.8,0.8,0.8h4.2c0.5,0,0.8-0.4,0.8-0.8V4.4
	C11.9,4,11.5,3.6,11.1,3.6z" fill="#FFFFFF" stroke="#0746A0" stroke-width="0.5" stroke-miterlimit="10" />
<g>
	<rect x="7.2" y="5.5" class="st2" width="3.7" height="5.3" fill="#356AD1" />
	<path class="st3" d="M10.6,5.7v4.8H7.4V5.7H10.6 M11.1,5.2H6.9v5.8h4.2V5.2L11.1,5.2z" fill="0746A0" />
</g>
</svg>
