<svg xmlns="http://www.w3.org/2000/svg" width="18" height="18" viewBox="0 0 18 18">
<g>
	<path class="st0" d="M0,0h18v18H0V0z" fill="none" />
	<g>
		<circle class="st1" cx="9" cy="5.5" r="3" fill="#FFFFFF" />
	</g>
	<g>
		<ellipse class="st1" cx="9" cy="5.5" rx="3.3" ry="2.6" fill="#FFFFFF" />
	</g>
	<g>
		<ellipse class="st1" cx="9" cy="11.1" rx="4.7" ry="2.6" fill="#FFFFFF" />
	</g>
	<g>
		<path class="st2" d="M7.5,14.4L7.5,14.4c-2.9-0.8-4.8-3.3-4.8-6.2c0-3.5,2.9-6.4,6.4-6.4s6.4,2.9,6.4,6.4c0,2.9-1.9,5.4-4.7,6.2
			h-0.1L9,16L7.5,14.4z M9,8.1c-1.3,0-4.5,0.7-4.5,2.5v0.1l0.1,0.1c1,1.5,2.7,2.4,4.4,2.4s3.4-0.9,4.4-2.4l0.1-0.1v-0.1
			C13.5,8.8,10.3,8.1,9,8.1z M9,3.1c-1.3,0-2.4,1.1-2.4,2.4S7.7,7.9,9,7.9s2.4-1.1,2.4-2.4S10.3,3.1,9,3.1z" fill="#DD3131" />
		<path class="st3" d="M9,2.2c3.3,0,6,2.7,6,6c0,2.7-1.8,5.1-4.5,5.8l-0.2,0.1l-0.1,0.1L9,15.4l-1.2-1.2l-0.1-0.1L7.5,14
			C4.8,13.3,3,11,3,8.2C3,4.9,5.7,2.2,9,2.2 M7.5,7.9C6,8.3,4.1,9.1,4.1,10.6v0.2L4.2,11C5.3,12.6,7,13.6,9,13.6s3.7-1,4.8-2.6
			l0.1-0.2v-0.2c0-1.5-1.8-2.4-3.4-2.7c0.8-0.5,1.4-1.4,1.4-2.4c0-1.6-1.3-2.8-2.8-2.8S6.2,4,6.2,5.5C6.2,6.5,6.7,7.4,7.5,7.9
			 M9,1.5c-3.7,0-6.8,3-6.8,6.8c0,3.1,2.1,5.8,5,6.5L9,16.5l1.7-1.7c2.9-0.8,5-3.4,5-6.5C15.8,4.5,12.7,1.5,9,1.5L9,1.5z M9,7.6
			c-1.1,0-2.1-0.9-2.1-2.1c0-1.1,0.9-2.1,2.1-2.1s2.1,0.9,2.1,2.1C11.1,6.6,10.1,7.6,9,7.6L9,7.6z M9,12.8c-1.7,0-3.2-0.9-4.1-2.2
			c0-1.4,2.8-2.1,4.1-2.1c1.4,0,4.1,0.8,4.1,2.1C12.2,12,10.7,12.8,9,12.8L9,12.8z" fill="#910C0C" />
	</g>
	<g>
		<circle class="st3" cx="12" cy="10.9" r="1.5" fill="#910C0C" />
	</g>
	<g>
		<path class="st3" d="M13.2,13.4c-0.4,0.2-0.8,0.3-1.2,0.3c-1.6,0-2.8-1.3-2.8-2.8S10.5,8,12,8s2.8,1.3,2.8,2.8
			c0,0.4-0.1,0.8-0.3,1.2l1.6,1.6L14.7,15L13.2,13.4z M12,10c-0.5,0-0.8,0.4-0.8,0.8s0.4,0.8,0.8,0.8s0.8-0.4,0.8-0.8S12.5,10,12,10
			z" fill="#910C0C" />
		<path class="st1" d="M12,8.4c1.4,0,2.4,1.1,2.4,2.4c0,0.5-0.1,0.9-0.3,1.2l1.6,1.6l-0.9,0.9L13.3,13c-0.4,0.2-0.8,0.3-1.2,0.3
			c-1.4,0-2.4-1.1-2.4-2.4C9.6,9.5,10.7,8.4,12,8.4 M12,12.1c0.7,0,1.2-0.6,1.2-1.2c0-0.7-0.6-1.2-1.2-1.2s-1.2,0.6-1.2,1.2
			S11.3,12.1,12,12.1 M12,7.7c-1.8,0-3.2,1.4-3.2,3.2s1.4,3.2,3.2,3.2c0.4,0,0.7-0.1,1.1-0.2l1.2,1.2l0.5,0.5l0.5-0.5l0.9-0.9
			l0.5-0.5l-0.5-0.5L15,11.9c0.1-0.3,0.2-0.7,0.2-1.1C15.2,9.1,13.8,7.7,12,7.7L12,7.7z" fill="#FFFFFF" />
	</g>
</g>
</svg>
