<?xml version="1.0" encoding="utf-8"?>
<!-- Generator: Adobe Illustrator 25.4.1, SVG Export Plug-In . SVG Version: 6.00 Build 0)  -->
<svg version="1.1" id="레이어_1" xmlns="http://www.w3.org/2000/svg" xmlns:xlink="http://www.w3.org/1999/xlink" x="0px"
	 y="0px" viewBox="0 0 18 18" style="enable-background:new 0 0 18 18;" xml:space="preserve">
<style type="text/css">
	.st0{fill:#651A96;stroke:#651A96;stroke-miterlimit:10;}
	.st1{fill:#FFFFFF;}
</style>
<path class="st0" d="M7.5,14.4L7.5,14.4c-2.9-0.8-4.8-3.3-4.8-6.2c0-3.5,2.9-6.4,6.4-6.4s6.4,2.9,6.4,6.4c0,2.9-1.9,5.4-4.7,6.2
	L9.1,16L7.5,14.4z"/>
<path class="st1" d="M9.1,7.3c-0.5,0-0.9,0.4-0.9,0.9c0,0.5,0.4,0.9,0.9,0.9S10,8.7,10,8.2C10,7.7,9.6,7.3,9.1,7.3z M11.9,8.2
	c0-1.5-1.2-2.8-2.8-2.8S6.3,6.6,6.3,8.2c0,1,0.6,1.9,1.4,2.4l0.5-0.8C7.6,9.4,7.3,8.9,7.3,8.2c0-1,0.8-1.8,1.8-1.8s1.8,0.8,1.8,1.8
	c0,0.7-0.4,1.3-0.9,1.6l0.5,0.8C11.3,10.1,11.9,9.2,11.9,8.2z M9.1,3.6c-2.5,0-4.6,2.1-4.6,4.6c0,1.7,0.9,3.2,2.3,4l0.5-0.8
	c-1.1-0.6-1.8-1.8-1.8-3.2c0-2,1.6-3.7,3.7-3.7s3.7,1.6,3.7,3.7c0,1.4-0.7,2.5-1.8,3.2l0.5,0.8c1.4-0.8,2.3-2.3,2.3-4
	C13.7,5.6,11.6,3.6,9.1,3.6z"/>
</svg>
