<svg xmlns="http://www.w3.org/2000/svg" width="18" height="18" viewBox="0 0 18 18">
<g>
	<g>
		<path class="st0" d="M7.5,14.4L7.5,14.4c-2.9-0.8-4.8-3.3-4.8-6.2c0-3.5,2.9-6.4,6.4-6.4s6.4,2.9,6.4,6.4c0,2.9-1.9,5.4-4.7,6.2
			h-0.1L9,16L7.5,14.4z" fill="#DB0000" />
		<path class="st1" d="M9,2.2c3.3,0,6,2.7,6,6c0,2.7-1.8,5.1-4.5,5.8l-0.2,0.1l-0.1,0.1L9,15.4l-1.2-1.2l-0.1-0.1L7.5,14
			C4.8,13.3,3,11,3,8.2C3,4.9,5.7,2.2,9,2.2 M9,1.5c-3.7,0-6.8,3-6.8,6.8c0,3.1,2.1,5.8,5,6.5L9,16.5l1.7-1.7c2.9-0.8,5-3.4,5-6.5
			C15.8,4.5,12.7,1.5,9,1.5L9,1.5z" fill="#840000" />
	</g>
	<path class="st2" d="M11.8,4.6H6.2C5.8,4.6,5.4,5,5.4,5.4v5.7c0,0.4,0.4,0.8,0.8,0.8h5.7c0.4,0,0.8-0.4,0.8-0.8V5.4
		C12.7,4.9,12.3,4.6,11.8,4.6z M11.4,9H9.8v1.6H8.2V9H6.6V7.4h1.6V5.8h1.6v1.6h1.6C11.4,7.4,11.4,9,11.4,9z" fill="#FFFFFF" />
</g>
</svg>
