<?xml version="1.0" encoding="utf-8"?>
<!-- Generator: Adobe Illustrator 25.1.0, SVG Export Plug-In . SVG Version: 6.00 Build 0)  -->
<svg version="1.1" id="레이어_1" xmlns="http://www.w3.org/2000/svg" xmlns:xlink="http://www.w3.org/1999/xlink" x="0px"
	 y="0px" viewBox="0 0 18 18" style="enable-background:new 0 0 18 18;" xml:space="preserve">
<style type="text/css">
	.st0{fill:#DB0000;}
	.st1{fill:#840000;}
	.st2{fill:#FFFFFF;}
</style>
<g id="레이어_7">
	<g>
		<path class="st0" d="M7.5,14.4L7.5,14.4c-2.9-0.8-4.8-3.3-4.8-6.2c0-3.5,2.9-6.4,6.4-6.4s6.4,2.9,6.4,6.4c0,2.9-1.9,5.4-4.7,6.2
			h-0.1L9,16L7.5,14.4z"/>
		<path class="st1" d="M9,2.2c3.3,0,6,2.7,6,6c0,2.7-1.8,5.1-4.5,5.8l-0.2,0.1l-0.1,0.1L9,15.4l-1.2-1.2l-0.1-0.1L7.5,14
			C4.8,13.3,3,11,3,8.2C3,4.9,5.7,2.2,9,2.2 M9,1.5c-3.7,0-6.8,3-6.8,6.8c0,3.1,2.1,5.8,5,6.5L9,16.5l1.7-1.7c2.9-0.8,5-3.4,5-6.5
			C15.8,4.5,12.7,1.5,9,1.5L9,1.5z"/>
	</g>
	<path class="st2" d="M12.9,7.6c-0.2,0-0.3,0.1-0.3,0.3H12c-0.1-0.6-0.3-1.1-0.6-1.6l0.5-0.5l0,0c0.1,0.1,0.3,0.1,0.5,0
		c0.1-0.1,0.1-0.3,0-0.5L11.8,5c-0.1-0.1-0.3-0.1-0.5,0c-0.1,0.1-0.1,0.3,0,0.4l-0.5,0.5c-0.4-0.3-1-0.6-1.5-0.6V4.6l0,0
		c0.2,0,0.3-0.1,0.3-0.3C9.6,4.1,9.5,4,9.3,4H8.7C8.5,4,8.4,4.1,8.4,4.3c0,0.2,0.1,0.3,0.3,0.3v0.7c-0.6,0-1.1,0.3-1.6,0.6L6.7,5.4
		l0,0c0.1-0.1,0.1-0.3,0-0.5c-0.2,0-0.4,0-0.5,0.1L5.8,5.4c-0.1,0.1-0.1,0.3,0,0.5C5.9,6,6.1,6,6.2,5.9l0.5,0.5
		C6.3,6.8,6.1,7.3,6,7.9H5.4c0-0.2-0.1-0.3-0.3-0.3c-0.2,0-0.3,0.1-0.3,0.3v0.6c0,0.2,0.1,0.3,0.3,0.3c0.2,0,0.3-0.1,0.3-0.3H6
		C6.1,9.1,6.3,9.6,6.6,10l-0.5,0.5c-0.1-0.1-0.3-0.1-0.4,0s-0.1,0.3,0,0.5l0.5,0.5c0.1,0.1,0.3,0.1,0.5,0c0.1-0.1,0.1-0.3,0-0.5l0,0
		l0.5-0.5c0.4,0.3,1,0.6,1.5,0.6v0.7c-0.2,0-0.3,0.1-0.3,0.3s0.1,0.3,0.3,0.3h0.6c0.2,0,0.3-0.1,0.3-0.3s-0.1-0.3-0.3-0.3l0,0v-0.7
		c0.6-0.1,1.1-0.3,1.5-0.6l0.5,0.5c-0.1,0.1-0.1,0.3,0,0.4s0.3,0.1,0.5,0l0.5-0.5c0.1-0.1,0.1-0.3,0-0.5c-0.1-0.1-0.3-0.1-0.5,0l0,0
		l-0.5-0.5c0.3-0.4,0.6-1,0.6-1.6h0.7c0,0.2,0.1,0.3,0.3,0.3s0.3-0.1,0.3-0.3V7.9C13.3,7.7,13.1,7.6,12.9,7.6z M9.7,6.5
		c0.2,0,0.4,0.2,0.4,0.4c0,0.2-0.2,0.4-0.4,0.4S9.3,7.2,9.3,6.9C9.3,6.7,9.5,6.5,9.7,6.5z M9,8.6c-0.2,0-0.4-0.2-0.4-0.4
		S8.8,7.8,9,7.8S9.4,8,9.4,8.2S9.2,8.6,9,8.6z M8.3,6.5c0.2,0,0.4,0.2,0.4,0.4c0,0.2-0.2,0.4-0.4,0.4S7.8,7.2,7.8,6.9
		C7.8,6.7,8,6.5,8.3,6.5z M7.5,8.6c-0.2,0-0.4-0.2-0.4-0.4s0.2-0.4,0.4-0.4c0.2,0,0.4,0.2,0.4,0.4S7.7,8.6,7.5,8.6z M8.3,9.9
		C8,9.9,7.8,9.7,7.8,9.5S8,9.1,8.2,9.1s0.4,0.2,0.4,0.4C8.7,9.7,8.5,9.9,8.3,9.9z M9.7,9.9c-0.2,0-0.4-0.2-0.4-0.4s0.2-0.4,0.4-0.4
		s0.4,0.2,0.4,0.4C10.2,9.7,10,9.9,9.7,9.9z M10.1,8.2c0-0.2,0.2-0.4,0.4-0.4s0.4,0.2,0.4,0.4c0,0.2-0.2,0.4-0.4,0.4
		C10.3,8.6,10.1,8.4,10.1,8.2z"/>
</g>
</svg>
