<svg width="24" height="24" viewBox="0 0 24 24" fill="none" xmlns="http://www.w3.org/2000/svg">
<path d="M17 19H15V21H17V19Z" fill="#E83B3B"/>
<path d="M21 15H19V17H21V15Z" fill="#E83B3B"/>
<path d="M21 11H19V13H21V11Z" fill="#E83B3B"/>
<path d="M13 3H11V5H13V3Z" fill="#E83B3B"/>
<path d="M9 19H7V21H9V19Z" fill="#E83B3B"/>
<path d="M5 7H3V9H5V7Z" fill="#E83B3B"/>
<path d="M3 5H5V3C4.46957 3 3.96086 3.21071 3.58579 3.58579C3.21071 3.96086 3 4.46957 3 5Z" fill="#E83B3B"/>
<path d="M21 19H19V21C19.5304 21 20.0391 20.7893 20.4142 20.4142C20.7893 20.0391 21 19.5304 21 19Z" fill="#E83B3B"/>
<path d="M13 19H11V21H13V19Z" fill="#E83B3B"/>
<path d="M5 15H3V17H5V15Z" fill="#E83B3B"/>
<path d="M9 3H7V5H9V3Z" fill="#E83B3B"/>
<path d="M5 11H3V13H5V11Z" fill="#E83B3B"/>
<path d="M5 21V19H3C3 19.5304 3.21071 20.0391 3.58579 20.4142C3.96086 20.7893 4.46957 21 5 21Z" fill="#E83B3B"/>
<path d="M18 3V6H21V8H18V11H16V8H13V6H16V3H18Z" fill="#E83B3B"/>
</svg>
