<svg width="24" height="24" viewBox="0 0 24 24" fill="none" xmlns="http://www.w3.org/2000/svg">
<path d="M5 21C6.10457 21 7 20.1046 7 19C7 17.8954 6.10457 17 5 17C3.89543 17 3 17.8954 3 19C3 20.1046 3.89543 21 5 21Z" fill="#E83B3B"/>
<path d="M5 7C6.10457 7 7 6.10457 7 5C7 3.89543 6.10457 3 5 3C3.89543 3 3 3.89543 3 5C3 6.10457 3.89543 7 5 7Z" fill="#E83B3B"/>
<path d="M19 12C18.6044 12 18.2178 12.1173 17.8889 12.3371C17.56 12.5568 17.3036 12.8692 17.1522 13.2346C17.0009 13.6001 16.9613 14.0022 17.0384 14.3902C17.1156 14.7781 17.3061 15.1345 17.5858 15.4142C17.8655 15.6939 18.2219 15.8844 18.6098 15.9616C18.9978 16.0387 19.3999 15.9991 19.7654 15.8478C20.1308 15.6964 20.4432 15.44 20.6629 15.1111C20.8827 14.7822 21 14.3956 21 14C21 13.4696 20.7893 12.9609 20.4142 12.5858C20.0391 12.2107 19.5304 12 19 12ZM19 15C18.8022 15 18.6089 14.9413 18.4444 14.8315C18.28 14.7216 18.1518 14.5654 18.0761 14.3827C18.0004 14.2 17.9806 13.9989 18.0192 13.8049C18.0578 13.6109 18.153 13.4327 18.2929 13.2929C18.4327 13.153 18.6109 13.0578 18.8049 13.0192C18.9989 12.9806 19.2 13.0004 19.3827 13.0761C19.5654 13.1518 19.7216 13.28 19.8315 13.4444C19.9413 13.6089 20 13.8022 20 14C20 14.2652 19.8946 14.5196 19.7071 14.7071C19.5196 14.8946 19.2652 15 19 15Z" fill="#E83B3B"/>
<path d="M19 7C20.1046 7 21 6.10457 21 5C21 3.89543 20.1046 3 19 3C17.8954 3 17 3.89543 17 5C17 6.10457 17.8954 7 19 7Z" fill="#E83B3B"/>
<path d="M19 21C20.1046 21 21 20.1046 21 19C21 17.8954 20.1046 17 19 17C17.8954 17 17 17.8954 17 19C17 20.1046 17.8954 21 19 21Z" fill="#E83B3B"/>
<path d="M9.41996 4H7.70996V6H9.41996V4Z" fill="#E83B3B"/>
<path d="M16.2799 4H14.5699V6H16.2799V4Z" fill="#E83B3B"/>
<path d="M12.85 4H11.14V6H12.85V4Z" fill="#E83B3B"/>
<path d="M6 7.70996H4V9.41996H6V7.70996Z" fill="#E83B3B"/>
<path d="M6 11.1401H4V12.8501H6V11.1401Z" fill="#E83B3B"/>
<path d="M6 14.5698H4V16.2798H6V14.5698Z" fill="#E83B3B"/>
<path d="M20 15H18V16.29H20V15Z" fill="#E83B3B"/>
<path d="M9.41996 18H7.70996V20H9.41996V18Z" fill="#E83B3B"/>
<path d="M16.2799 18H14.5699V20H16.2799V18Z" fill="#E83B3B"/>
<path d="M12.85 18H11.14V20H12.85V18Z" fill="#E83B3B"/>
</svg>
