<svg width="24" height="24" viewBox="0 0 24 24" fill="none" xmlns="http://www.w3.org/2000/svg">
<path d="M23.0156 8.01562C23.0156 9.09375 22.0781 9.98438 21 9.98438C20.8125 9.98438 20.6719 9.98438 20.4844 9.9375L16.9219 13.5C16.9688 13.6406 17.0156 13.8281 17.0156 14.0156C17.0156 15.0938 16.0781 15.9844 15 15.9844C13.9219 15.9844 12.9844 15.0938 12.9844 14.0156C12.9844 13.8281 13.0312 13.6406 13.0781 13.5L10.5 10.9219C10.3594 10.9688 10.1719 11.0156 9.98438 11.0156C9.79688 11.0156 9.65625 10.9688 9.46875 10.9219L4.92188 15.4688C4.96875 15.6562 5.01562 15.7969 5.01562 15.9844C5.01562 17.1094 4.07812 18 3 18C1.92188 18 0.984375 17.1094 0.984375 15.9844C0.984375 14.9062 1.92188 14.0156 3 14.0156C3.1875 14.0156 3.32812 14.0156 3.51562 14.0625L8.0625 9.51562C8.01562 9.375 8.01562 9.1875 8.01562 9C8.01562 7.92188 8.90625 6.98438 9.98438 6.98438C11.1094 6.98438 12 7.92188 12 9C12 9.1875 12 9.375 11.9531 9.51562L14.4844 12.0469C14.625 12 14.8125 12 15 12C15.1875 12 15.375 12 15.5156 12.0469L19.0781 8.53125C19.0312 8.34375 18.9844 8.20312 18.9844 8.01562C18.9844 6.89062 19.9219 6 21 6C22.0781 6 23.0156 6.89062 23.0156 8.01562Z" fill="white"/>
</svg>
