<svg width="24" height="24" viewBox="0 0 24 24" fill="none" xmlns="http://www.w3.org/2000/svg">
<path d="M7.78125 16.2188C6.65625 15.1406 6 13.6406 6 12C6 10.3594 6.65625 8.85938 7.78125 7.78125L9.1875 9.1875C8.4375 9.89062 8.01562 10.9219 8.01562 12C8.01562 13.0781 8.4375 14.1094 9.1875 14.8125L7.78125 16.2188ZM16.2188 16.2188C17.3438 15.1406 18 13.6406 18 12C18 10.3594 17.3438 8.85938 16.2188 7.78125L14.8125 9.1875C15.5625 9.89062 15.9844 10.9219 15.9844 12C15.9844 13.0781 15.5625 14.1094 14.8125 14.8125L16.2188 16.2188ZM12 9.98438C10.9219 9.98438 9.98438 10.9219 9.98438 12C9.98438 13.0781 10.9219 14.0156 12 14.0156C13.0781 14.0156 14.0156 13.0781 14.0156 12C14.0156 10.9219 13.0781 9.98438 12 9.98438ZM20.0156 12C20.0156 14.2031 19.0781 16.2188 17.6719 17.6719L19.0781 19.0781C20.8594 17.25 21.9844 14.7656 21.9844 12C21.9844 9.23438 20.8594 6.75 19.0781 4.92188L17.6719 6.32812C19.0781 7.78125 20.0156 9.79688 20.0156 12ZM6.32812 6.32812L4.92188 4.92188C3.14062 6.75 2.01562 9.23438 2.01562 12C2.01562 14.7656 3.14062 17.25 4.92188 19.0781L6.32812 17.6719C4.92188 16.2188 3.98438 14.2031 3.98438 12C3.98438 9.79688 4.92188 7.78125 6.32812 6.32812Z" fill="white"/>
</svg>
