<svg width="24" height="24" viewBox="0 0 24 24" fill="none" xmlns="http://www.w3.org/2000/svg">
<path d="M5 21C6.10457 21 7 20.1046 7 19C7 17.8954 6.10457 17 5 17C3.89543 17 3 17.8954 3 19C3 20.1046 3.89543 21 5 21Z" fill="white"/>
<path d="M5 7C6.10457 7 7 6.10457 7 5C7 3.89543 6.10457 3 5 3C3.89543 3 3 3.89543 3 5C3 6.10457 3.89543 7 5 7Z" fill="white"/>
<path d="M19 3C18.6044 3 18.2177 3.1173 17.8889 3.33706C17.56 3.55682 17.3036 3.86918 17.1522 4.23463C17.0009 4.60009 16.9613 5.00222 17.0384 5.39018C17.1156 5.77814 17.3061 6.13451 17.5858 6.41422C17.8655 6.69392 18.2219 6.8844 18.6098 6.96157C18.9978 7.03874 19.3999 6.99913 19.7654 6.84776C20.1308 6.69638 20.4432 6.44004 20.6629 6.11114C20.8827 5.78224 21 5.39556 21 5C21 4.46957 20.7893 3.96086 20.4142 3.58578C20.0391 3.21071 19.5304 3 19 3ZM19 6C18.8022 6 18.6089 5.94135 18.4444 5.83147C18.28 5.72159 18.1518 5.56541 18.0761 5.38268C18.0004 5.19996 17.9806 4.99889 18.0192 4.80491C18.0578 4.61093 18.153 4.43274 18.2929 4.29289C18.4327 4.15304 18.6109 4.0578 18.8049 4.01922C18.9989 3.98063 19.2 4.00043 19.3827 4.07612C19.5654 4.15181 19.7216 4.27998 19.8315 4.44443C19.9413 4.60888 20 4.80222 20 5C20 5.26522 19.8946 5.51957 19.7071 5.70711C19.5196 5.89464 19.2652 6 19 6Z" fill="white"/>
<path d="M19 21C20.1046 21 21 20.1046 21 19C21 17.8954 20.1046 17 19 17C17.8954 17 17 17.8954 17 19C17 20.1046 17.8954 21 19 21Z" fill="white"/>
<path d="M9.41996 4H7.70996V6H9.41996V4Z" fill="white"/>
<path d="M16.2799 4H14.5699V6H16.2799V4Z" fill="white"/>
<path d="M12.85 4H11.14V6H12.85V4Z" fill="white"/>
<path d="M6 7.70996H4V9.41996H6V7.70996Z" fill="white"/>
<path d="M6 11.1401H4V12.8501H6V11.1401Z" fill="white"/>
<path d="M6 14.5698H4V16.2798H6V14.5698Z" fill="white"/>
<path d="M20 7.70996H18V9.41996H20V7.70996Z" fill="white"/>
<path d="M20 11.1401H18V12.8501H20V11.1401Z" fill="white"/>
<path d="M20 14.5698H18V16.2798H20V14.5698Z" fill="white"/>
<path d="M9.41996 18H7.70996V20H9.41996V18Z" fill="white"/>
<path d="M16.2799 18H14.5699V20H16.2799V18Z" fill="white"/>
<path d="M12.85 18H11.14V20H12.85V18Z" fill="white"/>
</svg>
