<svg width="24" height="24" viewBox="0 0 24 24" fill="none" xmlns="http://www.w3.org/2000/svg">
<path d="M20.0156 0.984375V3.98438H23.0156V6H20.0156V9H18V6H15V3.98438H18V0.984375H20.0156ZM12 12.9844C10.9219 12.9844 9.98438 12.0938 9.98438 11.0156C9.98438 9.89062 10.9219 9 12 9C13.0781 9 14.0156 9.89062 14.0156 11.0156C14.0156 12.0938 13.0781 12.9844 12 12.9844ZM12.9844 3.04688V5.0625C12.6562 5.01562 12.3281 5.01562 12 5.01562C8.67188 5.01562 6 7.54688 6 11.2031C6 13.5469 7.96875 16.6406 12 20.3438C16.0312 16.6406 18 13.5469 18 11.2031V11.0156H20.0156V11.2031C20.0156 14.5312 17.3438 18.4688 12 23.0156C6.65625 18.4688 3.98438 14.5312 3.98438 11.2031C3.98438 6.23438 7.78125 3 12 3C12.3281 3 12.6562 3 12.9844 3.04688Z" fill="white"/>
</svg>
