<svg width="24" height="24" viewBox="0 0 24 24" fill="none" xmlns="http://www.w3.org/2000/svg">
<path d="M18 3V6H21V8H18V11H16V8H13V6H16V3H18Z" fill="white"/>
<path d="M18.2547 20.0101C18.0606 20.1638 17.8682 20.2975 17.6659 20.4304L16.5756 18.7791C17.0682 18.4565 17.5223 18.0786 17.929 17.6527L19.384 19.0348C19.0352 19.3906 18.6575 19.7168 18.2547 20.0101ZM15.672 21.4204C14.9661 21.667 14.2343 21.832 13.4908 21.9121L13.2866 19.8866C13.8729 19.8277 14.4502 19.6996 15.0064 19.5051L15.672 21.4204ZM20.7278 17.215L18.9888 16.2096C19.2862 15.701 19.5223 15.1589 19.6922 14.5948L21.5999 15.1632C21.3917 15.8793 21.0989 16.5681 20.7278 17.215ZM11.2861 21.8698C10.5473 21.774 9.82202 21.5926 9.12501 21.3294L9.84112 19.4547C10.3912 19.667 10.9651 19.8116 11.5501 19.8853L11.2861 21.8698ZM22.0026 12.97L20.005 12.8554C20.0313 12.2731 19.988 11.6896 19.8759 11.1176L21.8448 10.7578C21.9821 11.4995 22.0272 12.2553 21.9792 13.0081L22.0026 12.97ZM7.12439 20.3312C6.51089 19.9164 5.94696 19.4326 5.44367 18.8893L6.92574 17.5534C7.32304 17.9772 7.76855 18.353 8.25318 18.6733L7.12439 20.3312ZM5.91035 16.0793L4.15993 17.0404C3.79934 16.3846 3.52319 15.6859 3.33804 14.9608L5.30913 14.4607C5.44342 15.0225 5.6453 15.566 5.91035 16.0793ZM5.00079 12.7071L2.98836 12.762C2.97326 12.0166 3.03842 11.2718 3.18271 10.5404L5.15419 10.9538C5.03349 11.5301 4.98199 12.1187 5.00079 12.7071ZM12.8422 5.00125C12.254 4.96962 11.6641 5.00901 11.0853 5.11857L10.7147 3.15882C11.4461 3.01469 12.1925 2.96197 12.9369 3.00189L12.8422 5.00125ZM5.76147 9.29044L3.89895 8.43486C4.2115 7.75525 4.60448 7.11559 5.06946 6.52963L6.64545 7.79179C6.29178 8.2541 5.99499 8.75726 5.76147 9.29044ZM9.41223 5.65479C8.89148 5.88693 8.40064 6.18102 7.95033 6.53071L7.04129 5.44736L6.72362 4.94778C7.2962 4.4978 7.92265 4.12099 8.58848 3.82604L9.41223 5.65479Z" fill="white"/>
</svg>
