<svg width="24" height="24" viewBox="0 0 24 24" fill="none" xmlns="http://www.w3.org/2000/svg">
<path d="M20 17.28V6.72C20.3023 6.54549 20.5536 6.29491 20.729 5.99316C20.9045 5.69142 20.9979 5.34903 21 5C21 4.46957 20.7893 3.96086 20.4142 3.58578C20.0391 3.21071 19.5304 3 19 3C18.651 3.00211 18.3086 3.09552 18.0068 3.27095C17.7051 3.44638 17.4545 3.69772 17.28 4H6.72C6.54549 3.69772 6.29491 3.44638 5.99317 3.27095C5.69143 3.09552 5.34903 3.00211 5 3C4.46957 3 3.96086 3.21071 3.58578 3.58578C3.21071 3.96086 3 4.46957 3 5C3.00211 5.34903 3.09552 5.69142 3.27095 5.99316C3.44638 6.29491 3.69772 6.54549 4 6.72V17.28C3.69772 17.4545 3.44638 17.7051 3.27095 18.0068C3.09552 18.3086 3.00211 18.651 3 19C3 19.5304 3.21071 20.0391 3.58578 20.4142C3.96086 20.7893 4.46957 21 5 21C5.34903 20.9979 5.69143 20.9045 5.99317 20.729C6.29491 20.5536 6.54549 20.3023 6.72 20H17.28C17.4545 20.3023 17.7051 20.5536 18.0068 20.729C18.3086 20.9045 18.651 20.9979 19 21C19.5304 21 20.0391 20.7893 20.4142 20.4142C20.7893 20.0391 21 19.5304 21 19C20.9979 18.651 20.9045 18.3086 20.729 18.0068C20.5536 17.7051 20.3023 17.4545 20 17.28ZM18 17.28C17.6993 17.4504 17.4504 17.6993 17.28 18H6.72C6.54957 17.6993 6.30073 17.4504 6 17.28V6.72C6.30073 6.54957 6.54957 6.30073 6.72 6H17.27C17.4466 6.29936 17.6982 6.54751 18 6.72V17.28ZM19 6C18.8022 6 18.6089 5.94135 18.4444 5.83147C18.28 5.72159 18.1518 5.56542 18.0761 5.38269C18.0004 5.19996 17.9806 4.9989 18.0192 4.80492C18.0578 4.61094 18.153 4.43274 18.2929 4.29289C18.4327 4.15304 18.6109 4.0578 18.8049 4.01921C18.9989 3.98063 19.2 4.00044 19.3827 4.07613C19.5654 4.15181 19.7216 4.27998 19.8315 4.44443C19.9413 4.60888 20 4.80222 20 5C20 5.26522 19.8946 5.51957 19.7071 5.70711C19.5196 5.89464 19.2652 6 19 6Z" fill="#E83B3B"/>
</svg>
