<svg width="24" height="24" viewBox="0 0 24 24" fill="none" xmlns="http://www.w3.org/2000/svg">
<path d="M9.65625 7.64062C9.89062 7.125 9.98438 6.60938 9.98438 6C9.98438 3.79688 8.20312 2.01562 6 2.01562C3.79688 2.01562 2.01562 3.79688 2.01562 6C2.01562 8.20312 3.79688 9.98438 6 9.98438C6.60938 9.98438 7.125 9.89062 7.64062 9.65625L9.98438 12L7.64062 14.3438C7.125 14.1094 6.60938 14.0156 6 14.0156C3.79688 14.0156 2.01562 15.7969 2.01562 18C2.01562 20.2031 3.79688 21.9844 6 21.9844C8.20312 21.9844 9.98438 20.2031 9.98438 18C9.98438 17.3906 9.89062 16.875 9.65625 16.3594L12 14.0156L18.9844 21H21.9844V20.0156L9.65625 7.64062ZM6 8.01562C4.92188 8.01562 3.98438 7.125 3.98438 6C3.98438 4.875 4.92188 3.98438 6 3.98438C7.07812 3.98438 8.01562 4.875 8.01562 6C8.01562 7.125 7.07812 8.01562 6 8.01562ZM6 20.0156C4.92188 20.0156 3.98438 19.125 3.98438 18C3.98438 16.875 4.92188 15.9844 6 15.9844C7.07812 15.9844 8.01562 16.875 8.01562 18C8.01562 19.125 7.07812 20.0156 6 20.0156ZM12 12.5156C11.7188 12.5156 11.4844 12.2812 11.4844 12C11.4844 11.7188 11.7188 11.4844 12 11.4844C12.2812 11.4844 12.5156 11.7188 12.5156 12C12.5156 12.2812 12.2812 12.5156 12 12.5156ZM18.9844 3L12.9844 9L15 11.0156L21.9844 3.98438V3H18.9844Z" fill="#E83B3B"/>
</svg>
