<svg width="18" height="18" viewBox="0 0 18 18" fill="none" xmlns="http://www.w3.org/2000/svg">
<path d="M14.5781 0.609375C14.2031 0.1875 13.6875 0 13.1719 0H2.01562C0.890625 0 0 0.890625 0 2.01562V15.9844C0 17.1094 0.890625 18 2.01562 18H15.9844C17.1094 18 18 17.1094 18 15.9844V4.82812C18 4.3125 17.8125 3.79688 17.3906 3.42188L14.5781 0.609375ZM9 15.9844C7.35938 15.9844 6 14.6719 6 12.9844C6 11.3438 7.35938 9.98438 9 9.98438C10.6406 9.98438 12 11.3438 12 12.9844C12 14.6719 10.6406 15.9844 9 15.9844ZM9.98438 6H3.98438C2.90625 6 2.01562 5.10938 2.01562 3.98438C2.01562 2.90625 2.90625 2.01562 3.98438 2.01562H9.98438C11.1094 2.01562 12 2.90625 12 3.98438C12 5.10938 11.1094 6 9.98438 6Z" fill="white"/>
</svg>
