<svg width="24" height="24" viewBox="0 0 24 24" fill="none" xmlns="http://www.w3.org/2000/svg">
<path d="M21 14C21 13.4696 20.7893 12.9609 20.4142 12.5858C20.0391 12.2107 19.5304 12 19 12C18.4696 12 17.9609 12.2107 17.5858 12.5858C17.2107 12.9609 17 13.4696 17 14C17.0021 14.349 17.0955 14.6914 17.271 14.9932C17.4464 15.2949 17.6977 15.5455 18 15.72V17.28C17.6993 17.4504 17.4504 17.6993 17.28 18H6.72C6.54957 17.6993 6.30073 17.4504 6 17.28V6.72C6.30073 6.54957 6.54957 6.30073 6.72 6H17.28C17.4545 6.30228 17.7051 6.55362 18.0068 6.72905C18.3086 6.90448 18.651 6.99789 19 7C19.5304 7 20.0391 6.78929 20.4142 6.41422C20.7893 6.03914 21 5.53043 21 5C21 4.46957 20.7893 3.96086 20.4142 3.58578C20.0391 3.21071 19.5304 3 19 3C18.651 3.00211 18.3086 3.09552 18.0068 3.27095C17.7051 3.44638 17.4545 3.69772 17.28 4H6.72C6.54549 3.69772 6.29491 3.44638 5.99317 3.27095C5.69143 3.09552 5.34903 3.00211 5 3C4.46957 3 3.96086 3.21071 3.58578 3.58578C3.21071 3.96086 3 4.46957 3 5C3.00211 5.34903 3.09552 5.69143 3.27095 5.99317C3.44638 6.29491 3.69772 6.54549 4 6.72V17.28C3.69772 17.4545 3.44638 17.7051 3.27095 18.0068C3.09552 18.3086 3.00211 18.651 3 19C3 19.5304 3.21071 20.0391 3.58578 20.4142C3.96086 20.7893 4.46957 21 5 21C5.34903 20.9979 5.69143 20.9045 5.99317 20.729C6.29491 20.5536 6.54549 20.3023 6.72 20H17.28C17.4545 20.3023 17.7051 20.5536 18.0068 20.729C18.3086 20.9045 18.651 20.9979 19 21C19.5304 21 20.0391 20.7893 20.4142 20.4142C20.7893 20.0391 21 19.5304 21 19C20.9979 18.651 20.9045 18.3086 20.729 18.0068C20.5536 17.7051 20.3023 17.4545 20 17.28V15.72C20.3023 15.5455 20.5536 15.2949 20.729 14.9932C20.9045 14.6914 20.9979 14.349 21 14ZM19 15C18.8022 15 18.6089 14.9413 18.4444 14.8315C18.28 14.7216 18.1518 14.5654 18.0761 14.3827C18.0004 14.2 17.9806 13.9989 18.0192 13.8049C18.0578 13.6109 18.153 13.4327 18.2929 13.2929C18.4327 13.153 18.6109 13.0578 18.8049 13.0192C18.9989 12.9806 19.2 13.0004 19.3827 13.0761C19.5654 13.1518 19.7216 13.28 19.8315 13.4444C19.9413 13.6089 20 13.8022 20 14C20 14.2652 19.8946 14.5196 19.7071 14.7071C19.5196 14.8946 19.2652 15 19 15Z" fill="#E83B3B"/>
</svg>
