<svg width="24" height="24" viewBox="0 0 24 24" fill="none" xmlns="http://www.w3.org/2000/svg">
<path d="M17 17H15V19H17V17Z" fill="#333333"/>
<path d="M21 13H19V15H21V13Z" fill="#333333"/>
<path d="M13 5H11V7H13V5Z" fill="#333333"/>
<path d="M9 17H7V19H9V17Z" fill="#333333"/>
<path d="M5 9H3V11H5V9Z" fill="#333333"/>
<path d="M3 7H5V5C4.46957 5 3.96086 5.21071 3.58579 5.58579C3.21071 5.96086 3 6.46957 3 7Z" fill="#333333"/>
<path d="M21 17H19V19C19.5304 19 20.0391 18.7893 20.4142 18.4142C20.7893 18.0391 21 17.5304 21 17Z" fill="#333333"/>
<path d="M13 17H11V19H13V17Z" fill="#333333"/>
<path d="M5 13H3V15H5V13Z" fill="#333333"/>
<path d="M9 5H7V7H9V5Z" fill="#333333"/>
<path d="M5 19V17H3C3 17.5304 3.21071 18.0391 3.58579 18.4142C3.96086 18.7893 4.46957 19 5 19Z" fill="#333333"/>
<path d="M18 5V8H21V10H18V13H16V10H13V8H16V5H18Z" fill="#333333"/>
</svg>
