<svg width="20" height="20" viewBox="0 0 20 20" fill="none" xmlns="http://www.w3.org/2000/svg">
<path d="M19.9844 4.98438V3.01562H16.9844V0.015625H15.0156V3.01562H10.9844V0.015625H9.01562V3.01562H4.98438V0.015625H3.01562V3.01562H0.015625V4.98438H3.01562V9.01562H0.015625V10.9844H3.01562V15.0156H0.015625V16.9844H3.01562V19.9844H4.98438V16.9844H9.01562V19.9844H10.9844V16.9844H15.0156V19.9844H16.9844V16.9844H19.9844V15.0156H16.9844V10.9844H19.9844V9.01562H16.9844V4.98438H19.9844ZM4.98438 4.98438H9.01562V9.01562H4.98438V4.98438ZM4.98438 15.0156V10.9844H9.01562V15.0156H4.98438ZM15.0156 15.0156H10.9844V10.9844H15.0156V15.0156ZM15.0156 9.01562H10.9844V4.98438H15.0156V9.01562Z" fill="#333333"/>
</svg>
