<svg width="24" height="24" viewBox="0 0 24 24" fill="none" xmlns="http://www.w3.org/2000/svg">
<g clip-path="url(#clip0_1408_11744)">
<path d="M7.47 21.49C5.82638 20.711 4.41258 19.5195 3.36634 18.0316C2.3201 16.5438 1.67711 14.8102 1.5 13H0C0.251374 16.0062 1.6258 18.8075 3.84957 20.8459C6.07335 22.8844 8.98331 24.0105 12 24C12.23 24 12.44 24 12.66 24L8.8 20.15L7.47 21.49ZM12.05 0C11.82 0 11.61 0 11.39 0L15.2 3.85L16.53 2.52C18.1797 3.29174 19.6002 4.47929 20.6521 5.96603C21.7041 7.45276 22.3512 9.18755 22.53 11H24C23.7493 8.0024 22.382 5.20826 20.1688 3.17103C17.9556 1.1338 15.0581 0.0020708 12.05 0V0Z" fill="#333333"/>
<path d="M18.1794 6.44004L14.3594 7.71004L10.4994 6.50004L9.63941 6.29004L8.49941 6.67004L5.17941 7.77004C4.97243 7.83962 4.79391 7.97503 4.67112 8.1556C4.54833 8.33617 4.48802 8.55197 4.49941 8.77004V16.66C4.499 16.819 4.53651 16.9759 4.60883 17.1175C4.68115 17.2591 4.7862 17.3814 4.91526 17.4743C5.04432 17.5672 5.19367 17.6279 5.35091 17.6515C5.50815 17.6751 5.66876 17.6609 5.81941 17.61L9.63941 16.34L13.4994 17.5L14.3594 17.71L15.4994 17.33L18.8194 16.23C19.0264 16.1605 19.2049 16.025 19.3277 15.8445C19.4505 15.6639 19.5108 15.4481 19.4994 15.23V7.39004C19.4998 7.23103 19.4623 7.07422 19.39 6.93261C19.3177 6.79101 19.2126 6.66869 19.0836 6.5758C18.9545 6.48292 18.8051 6.42215 18.6479 6.39854C18.4907 6.37493 18.3301 6.38916 18.1794 6.44004ZM6.49941 9.44004L8.49941 8.77004V14.56L6.49941 15.23V9.44004ZM13.4994 15.44L10.4994 14.44V8.56004L13.4994 9.56004V15.44ZM17.4994 14.56L15.4994 15.23V9.44004L17.4994 8.77004V14.56Z" fill="#333333"/>
</g>
<defs>
<clipPath id="clip0_1408_11744">
<rect width="24" height="24" fill="white"/>
</clipPath>
</defs>
</svg>
