<svg width="24" height="24" viewBox="0 0 24 24" fill="none" xmlns="http://www.w3.org/2000/svg">
<path d="M8.99914 5L14.9991 7.11V12.18L20.9991 18.18V3.5C20.9991 3.36739 20.9465 3.24021 20.8527 3.14645C20.7589 3.05268 20.6317 3 20.4991 3H20.3391L14.9991 5.1L8.99914 3L6.61914 3.8L8.99914 6.18V5Z" fill="#333333"/>
<path d="M2.09945 2.09961L0.689453 3.50961L2.99945 5.81961V20.4996C2.99945 20.6322 3.05213 20.7594 3.1459 20.8532C3.23967 20.9469 3.36684 20.9996 3.49945 20.9996H3.65945L8.99945 18.8996L14.9995 20.9996L17.3695 20.1996L20.4795 23.3096L21.8995 21.8996L2.09945 2.09961ZM14.9995 18.9996L8.99945 16.8896V11.8196L14.9995 17.8196V18.9996Z" fill="#333333"/>
</svg>
