<svg width="24" height="24" viewBox="0 0 24 24" fill="none" xmlns="http://www.w3.org/2000/svg">
<path d="M24 12C24 18.6274 18.6274 24 12 24C5.37258 24 0 18.6274 0 12C0 5.37258 5.37258 0 12 0C18.6274 0 24 5.37258 24 12Z" fill="white"/>
<path fill-rule="evenodd" clip-rule="evenodd" d="M11.9996 21.4996C17.2463 21.4996 21.4996 17.2463 21.4996 11.9996C21.4996 6.7529 17.2463 2.49961 11.9996 2.49961C6.7529 2.49961 2.49961 6.7529 2.49961 11.9996C2.49961 17.2463 6.7529 21.4996 11.9996 21.4996ZM11.9996 23.3996C18.2957 23.3996 23.3996 18.2957 23.3996 11.9996C23.3996 5.70356 18.2957 0.599609 11.9996 0.599609C5.70356 0.599609 0.599609 5.70356 0.599609 11.9996C0.599609 18.2957 5.70356 23.3996 11.9996 23.3996Z" fill="#72657D"/>
<path d="M17.8062 8.74999H15.6937C15.3687 8.74999 14.8812 8.91249 14.7187 9.23749L9.19374 14.7625H7.24375C6.43125 14.7625 5.78125 15.4125 5.78125 16.225C5.78125 17.0375 6.43125 17.6875 7.24375 17.6875H9.68124C10.0062 17.6875 10.4937 17.525 10.6562 17.2L16.1812 11.675H17.8062C18.6187 11.675 19.2687 11.025 19.2687 10.2125C19.2687 9.39999 18.6187 8.74999 17.8062 8.74999Z" fill="#72657D"/>
<path d="M11.3062 8.74999C11.6312 8.58749 11.7937 8.09999 11.7937 7.6125C11.9562 6.9625 11.3062 6.3125 10.6562 6.3125C9.84374 6.3125 9.19374 6.9625 9.19374 7.6125C9.19374 8.09999 9.35624 8.42499 9.68124 8.74999C9.35624 8.91249 8.86874 9.56249 8.86874 10.2125V13.625L12.1187 10.2125C12.2812 9.56249 11.9562 8.91249 11.3062 8.74999Z" fill="#72657D"/>
</svg>
