<svg width="24" height="24" viewBox="0 0 24 24" fill="none" xmlns="http://www.w3.org/2000/svg">
<circle cx="12" cy="12" r="11.75" fill="#FB7D4C" stroke="white" stroke-width="0.5"/>
<path d="M13.9922 9C13.9922 8.53125 14.2422 8.08594 14.7422 7.66406C15.2578 7.22656 15.8438 7.00781 16.5 7.00781V16.9922H15.2578V13.0078H13.9922V9ZM11.5078 10.5V7.00781H12.4922V10.5C12.4922 11.0312 12.3125 11.4922 11.9531 11.8828C11.5938 12.2578 11.1484 12.4609 10.6172 12.4922V16.9922H9.375V12.4922C8.84375 12.4609 8.39844 12.2578 8.03906 11.8828C7.67969 11.4922 7.5 11.0312 7.5 10.5V7.00781H8.50781V10.5H9.49219V7.00781H10.5V10.5H11.5078Z" fill="white"/>
</svg>
