<svg width="24" height="24" viewBox="0 0 24 24" fill="none" xmlns="http://www.w3.org/2000/svg">
<circle cx="12" cy="12" r="11.75" fill="#EC6259" stroke="white" stroke-width="0.5"/>
<path d="M15 13.0078V10.9922H13.0078V9H10.9922V10.9922H9V13.0078H10.9922V15H13.0078V13.0078H15ZM15.4922 7.5C15.7578 7.5 15.9922 7.60156 16.1953 7.80469C16.3984 8.00781 16.5 8.24219 16.5 8.50781V15.4922C16.5 15.7578 16.3984 15.9922 16.1953 16.1953C15.9922 16.3984 15.7578 16.5 15.4922 16.5H8.50781C8.24219 16.5 8.00781 16.3984 7.80469 16.1953C7.60156 15.9922 7.5 15.7578 7.5 15.4922V8.50781C7.5 8.24219 7.60156 8.00781 7.80469 7.80469C8.00781 7.60156 8.24219 7.5 8.50781 7.5H15.4922Z" fill="white"/>
</svg>
