<svg width="24" height="24" viewBox="0 0 24 24" fill="none" xmlns="http://www.w3.org/2000/svg">
<path d="M20.6719 7.50781C21.0104 7.84635 21.1797 8.23698 21.1797 8.67969C21.1797 9.1224 21.0104 9.51302 20.6719 9.85156C20.3333 10.1641 19.9427 10.3203 19.5 10.3203H19.4609C19.2786 10.3203 19.1484 10.3073 19.0703 10.2812L16.1016 13.25C16.1536 13.4062 16.1797 13.5495 16.1797 13.6797C16.1797 14.1224 16.0104 14.513 15.6719 14.8516C15.3333 15.1641 14.9427 15.3203 14.5 15.3203C14.0573 15.3203 13.6667 15.1641 13.3281 14.8516C12.9896 14.513 12.8203 14.1224 12.8203 13.6797C12.8203 13.5495 12.8464 13.4062 12.8984 13.25L10.75 11.1016C10.5938 11.1536 10.4505 11.1797 10.3203 11.1797C10.1901 11.1797 10.0469 11.1536 9.89062 11.1016L6.10156 14.8906C6.15365 15.0469 6.17969 15.1901 6.17969 15.3203C6.17969 15.763 6.01042 16.1536 5.67188 16.4922C5.33333 16.8307 4.94271 17 4.5 17C4.05729 17 3.66667 16.8307 3.32812 16.4922C2.98958 16.1536 2.82031 15.763 2.82031 15.3203C2.82031 14.8776 2.98958 14.5 3.32812 14.1875C3.66667 13.849 4.05729 13.6797 4.5 13.6797C4.70833 13.6797 4.85156 13.6927 4.92969 13.7188L8.71875 9.92969C8.69271 9.85156 8.67969 9.70833 8.67969 9.5C8.67969 9.05729 8.83594 8.66667 9.14844 8.32812C9.48698 7.98958 9.8776 7.82031 10.3203 7.82031C10.763 7.82031 11.1536 7.98958 11.4922 8.32812C11.8307 8.66667 12 9.05729 12 9.5C12 9.70833 11.987 9.85156 11.9609 9.92969L14.0703 12.0391C14.1484 12.013 14.2917 12 14.5 12C14.7083 12 14.8516 12.013 14.9297 12.0391L17.8984 9.10938C17.8464 8.95312 17.8203 8.8099 17.8203 8.67969C17.8203 8.23698 17.9896 7.84635 18.3281 7.50781C18.6667 7.16927 19.0573 7 19.5 7C19.9427 7 20.3333 7.16927 20.6719 7.50781Z" fill="#333333" fill-opacity="0.64"/>
</svg>
