<svg width="18" height="17" viewBox="0 0 18 17" fill="none" xmlns="http://www.w3.org/2000/svg">
<path d="M9 2.5C10.0781 2.5 11.0156 3.39062 11.0156 4.51562C11.0156 5.59375 10.0781 6.48438 9 6.48438C7.92188 6.48438 6.98438 5.59375 6.98438 4.51562C6.98438 3.39062 7.92188 2.5 9 2.5ZM9 12.4844C11.7188 12.4844 14.8125 13.7969 15 14.5H3C3.23438 13.7969 6.32812 12.4844 9 12.4844ZM9 0.484375C6.79688 0.484375 5.01562 2.3125 5.01562 4.51562C5.01562 6.71875 6.79688 8.5 9 8.5C11.2031 8.5 12.9844 6.71875 12.9844 4.51562C12.9844 2.3125 11.2031 0.484375 9 0.484375ZM9 10.5156C6.32812 10.5156 0.984375 11.8281 0.984375 14.5V16.5156H17.0156V14.5C17.0156 11.8281 11.6719 10.5156 9 10.5156Z" fill="#333333" fill-opacity="0.4"/>
</svg>
