<svg width="24" height="24" viewBox="0 0 24 24" fill="none" xmlns="http://www.w3.org/2000/svg">
<circle cx="12" cy="12" r="11.75" fill="#FB7D4C" stroke="white" stroke-width="0.5"/>
<path d="M7.99219 15.4922H16.0078V16.5H7.99219V15.4922ZM16.0078 10.0078V8.50781H15V10.0078H16.0078ZM16.0078 7.5C16.2891 7.5 16.5234 7.60156 16.7109 7.80469C16.8984 7.99219 16.9922 8.22656 16.9922 8.50781V10.0078C16.9922 10.2891 16.8984 10.5234 16.7109 10.7109C16.5234 10.8984 16.2891 10.9922 16.0078 10.9922H15V12.4922C15 13.0391 14.8047 13.5156 14.4141 13.9219C14.0234 14.3125 13.5547 14.5078 13.0078 14.5078H10.0078C9.46094 14.5078 8.98438 14.3125 8.57813 13.9219C8.1875 13.5156 7.99219 13.0391 7.99219 12.4922V7.5H16.0078Z" fill="white"/>
</svg>
