<svg width="24" height="24" viewBox="0 0 24 24" fill="none" xmlns="http://www.w3.org/2000/svg">
<path d="M7.78125 16.2188C7.21875 15.6875 6.78125 15.0625 6.46875 14.3438C6.15625 13.625 6 12.8438 6 12C6 11.1562 6.15625 10.375 6.46875 9.65625C6.78125 8.9375 7.21875 8.3125 7.78125 7.78125L9.1875 9.1875C8.8125 9.53125 8.51562 9.95312 8.29688 10.4531C8.10938 10.9219 8.01562 11.4375 8.01562 12C8.01562 12.5625 8.10938 13.0938 8.29688 13.5938C8.51562 14.0625 8.8125 14.4688 9.1875 14.8125L7.78125 16.2188ZM16.2188 16.2188C16.7812 15.6875 17.2188 15.0625 17.5312 14.3438C17.8438 13.625 18 12.8438 18 12C18 11.1562 17.8438 10.375 17.5312 9.65625C17.2188 8.9375 16.7812 8.3125 16.2188 7.78125L14.8125 9.1875C15.1875 9.53125 15.4688 9.95312 15.6562 10.4531C15.875 10.9219 15.9844 11.4375 15.9844 12C15.9844 12.5625 15.875 13.0938 15.6562 13.5938C15.4688 14.0625 15.1875 14.4688 14.8125 14.8125L16.2188 16.2188ZM12 9.98438C11.4375 9.98438 10.9531 10.1875 10.5469 10.5938C10.1719 10.9688 9.98438 11.4375 9.98438 12C9.98438 12.5625 10.1719 13.0469 10.5469 13.4531C10.9531 13.8281 11.4375 14.0156 12 14.0156C12.5625 14.0156 13.0312 13.8281 13.4062 13.4531C13.8125 13.0469 14.0156 12.5625 14.0156 12C14.0156 11.4375 13.8125 10.9688 13.4062 10.5938C13.0312 10.1875 12.5625 9.98438 12 9.98438ZM20.0156 12C20.0156 13.0938 19.7969 14.125 19.3594 15.0938C18.9531 16.0625 18.3906 16.9219 17.6719 17.6719L19.0781 19.0781C19.9844 18.1719 20.6875 17.1094 21.1875 15.8906C21.7188 14.6719 21.9844 13.375 21.9844 12C21.9844 10.625 21.7188 9.32812 21.1875 8.10938C20.6875 6.89062 19.9844 5.82812 19.0781 4.92188L17.6719 6.32812C18.3906 7.07812 18.9531 7.9375 19.3594 8.90625C19.7969 9.875 20.0156 10.9062 20.0156 12ZM6.32812 6.32812L4.92188 4.92188C4.01562 5.82812 3.29688 6.89062 2.76562 8.10938C2.26562 9.32812 2.01562 10.625 2.01562 12C2.01562 13.375 2.26562 14.6719 2.76562 15.8906C3.29688 17.1094 4.01562 18.1719 4.92188 19.0781L6.32812 17.6719C5.60938 16.9219 5.03125 16.0625 4.59375 15.0938C4.1875 14.125 3.98438 13.0938 3.98438 12C3.98438 10.9062 4.1875 9.875 4.59375 8.90625C5.03125 7.9375 5.60938 7.07812 6.32812 6.32812Z" fill="#356AD1"/>
</svg>
