<svg width="24" height="24" viewBox="0 0 24 24" fill="none" xmlns="http://www.w3.org/2000/svg">
<path d="M5.01562 12.9844C6.95312 11.0781 9.28125 10.125 12 10.125C14.75 10.125 17.0781 11.0781 18.9844 12.9844L17.0156 15C16.4531 14.4375 15.6719 13.9531 14.6719 13.5469C13.7031 13.1406 12.8125 12.9375 12 12.9375C11.1875 12.9375 10.2812 13.1406 9.28125 13.5469C8.3125 13.9531 7.54688 14.4375 6.98438 15L5.01562 12.9844ZM9 17.0156C9.84375 16.1719 10.8438 15.75 12 15.75C13.1562 15.75 14.1562 16.1719 15 17.0156L12 20.0156L9 17.0156ZM0.984375 9C4.04688 5.96875 7.71875 4.45312 12 4.45312C16.3125 4.45312 19.9844 5.96875 23.0156 9L21 11.0156C18.5 8.54688 15.5 7.3125 12 7.3125C8.5 7.3125 5.5 8.54688 3 11.0156L0.984375 9Z" fill="#356AD1"/>
</svg>
